<svg xmlns="http://www.w3.org/2000/svg" xmlns:xlink="http://www.w3.org/1999/xlink" width="480" zoomAndPan="magnify" viewBox="0 0 360 359.999987" height="480" preserveAspectRatio="xMidYMid meet" version="1.0"><defs><clipPath id="d4e662601b"><path d="M 87 284 L 111 284 L 111 318.691406 L 87 318.691406 Z M 87 284 " clip-rule="nonzero"/></clipPath><clipPath id="19040efd83"><path d="M 335 99 L 352.566406 99 L 352.566406 126 L 335 126 Z M 335 99 " clip-rule="nonzero"/></clipPath></defs><path fill="#b3b3b3" d="M 151.90625 202.425781 C 151.335938 202.425781 150.859375 201.984375 150.820312 201.40625 C 149.917969 187.625 149.449219 173.613281 149.421875 159.769531 C 149.421875 159.167969 149.910156 158.683594 150.507812 158.679688 C 151.105469 158.679688 151.59375 159.164062 151.59375 159.761719 C 151.621094 173.558594 152.089844 187.523438 152.988281 201.261719 C 153.03125 201.863281 152.574219 202.378906 151.976562 202.417969 C 151.949219 202.417969 151.925781 202.417969 151.902344 202.417969 Z M 151.90625 202.425781 " fill-opacity="1" fill-rule="nonzero"/><path fill="#b3b3b3" d="M 68.726562 160.023438 C 68.398438 160.023438 68.078125 159.878906 67.863281 159.601562 C 67.496094 159.125 67.585938 158.441406 68.0625 158.078125 L 106.675781 128.464844 C 107.152344 128.101562 107.835938 128.191406 108.199219 128.667969 C 108.566406 129.144531 108.472656 129.824219 107.996094 130.1875 L 69.386719 159.800781 C 69.1875 159.953125 68.953125 160.023438 68.722656 160.023438 Z M 68.726562 160.023438 " fill-opacity="1" fill-rule="nonzero"/><path fill="#b3b3b3" d="M 110.195312 231.988281 C 110.042969 231.988281 109.894531 231.960938 109.746094 231.894531 C 104.753906 229.632812 99.429688 227.507812 94.28125 225.449219 C 85.675781 222.007812 76.78125 218.453125 68.757812 214.046875 C 68.230469 213.757812 68.039062 213.097656 68.332031 212.570312 C 68.621094 212.042969 69.28125 211.855469 69.804688 212.144531 C 77.710938 216.484375 86.546875 220.015625 95.089844 223.429688 C 100.257812 225.496094 105.605469 227.632812 110.644531 229.910156 C 111.195312 230.160156 111.4375 230.804688 111.1875 231.347656 C 111.003906 231.753906 110.609375 231.988281 110.195312 231.988281 Z M 110.195312 231.988281 " fill-opacity="1" fill-rule="nonzero"/><path fill="#b3b3b3" d="M 245.640625 151.292969 C 245.46875 151.292969 245.296875 151.253906 245.136719 151.171875 C 230.457031 143.441406 215.355469 136.039062 200.253906 129.171875 C 199.710938 128.921875 199.46875 128.28125 199.714844 127.734375 C 199.964844 127.1875 200.613281 126.945312 201.15625 127.195312 C 216.292969 134.082031 231.433594 141.503906 246.152344 149.25 C 246.683594 149.53125 246.886719 150.1875 246.605469 150.714844 C 246.410156 151.085938 246.035156 151.296875 245.640625 151.296875 Z M 245.640625 151.292969 " fill-opacity="1" fill-rule="nonzero"/><path fill="#000000" d="M 109.527344 240.785156 C 109.316406 240.785156 109.101562 240.746094 108.898438 240.65625 L 62.257812 221.179688 C 61.664062 220.933594 61.273438 220.367188 61.257812 219.726562 L 59.449219 156.335938 C 59.433594 155.820312 59.664062 155.332031 60.070312 155.011719 L 105.824219 118.800781 C 106.386719 118.355469 107.164062 118.328125 107.753906 118.726562 L 157.960938 152.667969 C 158.40625 152.964844 158.671875 153.464844 158.679688 154.003906 L 159.191406 208.535156 C 159.195312 209.09375 158.914062 209.621094 158.4375 209.925781 L 110.40625 240.53125 C 110.140625 240.699219 109.835938 240.785156 109.527344 240.785156 Z M 64.492188 218.582031 L 109.375 237.324219 L 155.925781 207.664062 L 155.433594 154.890625 L 106.921875 122.097656 L 62.742188 157.0625 L 64.496094 218.578125 Z M 64.492188 218.582031 " fill-opacity="1" fill-rule="nonzero"/><path fill="#000000" d="M 35.832031 232.503906 C 35.296875 232.503906 34.773438 232.238281 34.464844 231.757812 C 33.972656 231.003906 34.1875 229.996094 34.945312 229.503906 C 43.671875 223.847656 52.394531 217.921875 60.875 211.886719 C 61.605469 211.363281 62.625 211.53125 63.148438 212.269531 C 63.671875 213 63.5 214.019531 62.769531 214.539062 C 54.25 220.601562 45.488281 226.558594 36.71875 232.238281 C 36.445312 232.414062 36.136719 232.503906 35.832031 232.503906 Z M 35.832031 232.503906 " fill-opacity="1" fill-rule="nonzero"/><path fill="#000000" d="M 39.191406 240.425781 C 38.652344 240.425781 38.125 240.160156 37.816406 239.671875 C 37.332031 238.914062 37.554688 237.90625 38.316406 237.421875 L 65.054688 220.429688 C 65.8125 219.945312 66.820312 220.171875 67.308594 220.933594 C 67.792969 221.691406 67.570312 222.699219 66.808594 223.183594 L 40.066406 240.175781 C 39.796875 240.347656 39.492188 240.429688 39.191406 240.429688 Z M 39.191406 240.425781 " fill-opacity="1" fill-rule="nonzero"/><path fill="#000000" d="M 101.757812 125.5 C 100.9375 125.5 100.230469 124.878906 100.140625 124.050781 C 98.707031 111.207031 97.667969 98.132812 97.046875 85.199219 C 97.003906 84.296875 97.699219 83.539062 98.601562 83.492188 C 99.515625 83.453125 100.261719 84.144531 100.308594 85.042969 C 100.921875 97.914062 101.957031 110.914062 103.382812 123.691406 C 103.480469 124.582031 102.835938 125.390625 101.941406 125.492188 C 101.878906 125.5 101.820312 125.503906 101.757812 125.503906 Z M 101.757812 125.5 " fill-opacity="1" fill-rule="nonzero"/><path fill="#000000" d="M 113.214844 125.5 C 112.394531 125.5 111.6875 124.878906 111.597656 124.050781 C 110.164062 111.1875 109.125 98.117188 108.507812 85.199219 C 108.460938 84.296875 109.160156 83.539062 110.058594 83.492188 C 110.988281 83.453125 111.722656 84.144531 111.765625 85.042969 C 112.378906 97.894531 113.414062 110.898438 114.839844 123.691406 C 114.941406 124.582031 114.296875 125.390625 113.398438 125.492188 C 113.335938 125.5 113.277344 125.503906 113.214844 125.503906 Z M 113.214844 125.5 " fill-opacity="1" fill-rule="nonzero"/><path fill="#000000" d="M 208.570312 238.6875 C 208.308594 238.6875 208.042969 238.625 207.800781 238.496094 L 156.1875 210.957031 C 155.390625 210.535156 155.089844 209.546875 155.515625 208.75 C 155.941406 207.957031 156.925781 207.65625 157.722656 208.082031 L 208.425781 235.132812 L 254.605469 200.527344 L 250.328125 145.398438 L 200.328125 121.863281 L 158.140625 155.636719 C 157.4375 156.203125 156.414062 156.085938 155.847656 155.386719 C 155.285156 154.683594 155.398438 153.65625 156.101562 153.09375 L 199.082031 118.683594 C 199.570312 118.292969 200.238281 118.214844 200.800781 118.480469 L 252.582031 142.855469 C 253.113281 143.105469 253.46875 143.621094 253.511719 144.203125 L 257.933594 201.167969 C 257.976562 201.722656 257.730469 202.265625 257.285156 202.597656 L 209.554688 238.363281 C 209.265625 238.578125 208.921875 238.691406 208.578125 238.691406 Z M 208.570312 238.6875 " fill-opacity="1" fill-rule="nonzero"/><path fill="#000000" d="M 113.140625 274.0625 C 112.34375 274.0625 111.648438 273.480469 111.527344 272.671875 C 109.734375 260.617188 108.773438 250.457031 108.414062 239.726562 C 108.386719 238.824219 109.089844 238.070312 109.988281 238.042969 C 110.007812 238.042969 110.027344 238.042969 110.042969 238.042969 C 110.917969 238.042969 111.644531 238.738281 111.675781 239.617188 C 112.027344 250.222656 112.976562 260.265625 114.753906 272.191406 C 114.886719 273.082031 114.269531 273.910156 113.378906 274.042969 C 113.300781 274.054688 113.21875 274.0625 113.140625 274.0625 Z M 113.140625 274.0625 " fill-opacity="1" fill-rule="nonzero"/><path fill="#000000" d="M 251.578125 146.105469 C 251.105469 146.105469 250.632812 145.902344 250.3125 145.507812 C 249.742188 144.808594 249.851562 143.78125 250.546875 143.214844 C 260.921875 134.78125 270.953125 125.6875 280.371094 116.195312 C 281.007812 115.554688 282.042969 115.550781 282.679688 116.183594 C 283.320312 116.816406 283.324219 117.847656 282.691406 118.488281 C 273.195312 128.066406 263.070312 137.238281 252.605469 145.742188 C 252.304688 145.988281 251.941406 146.109375 251.578125 146.109375 Z M 251.578125 146.105469 " fill-opacity="1" fill-rule="nonzero"/><path fill="#000000" d="M 20.886719 262.792969 C 16.671875 262.792969 12.738281 259.371094 10.699219 255.378906 C 8.308594 250.6875 7.570312 245.261719 8.617188 240.097656 C 9.3125 236.667969 10.753906 233.816406 12.800781 231.84375 C 15.351562 229.375 18.996094 228.316406 22.070312 229.148438 C 25.027344 229.945312 27.445312 231.980469 29.0625 235.035156 C 32.261719 241.078125 31.761719 249.363281 29.84375 254.890625 C 28.484375 258.804688 26.15625 261.472656 23.285156 262.40625 C 22.480469 262.671875 21.675781 262.792969 20.886719 262.792969 Z M 19.878906 232.121094 C 18.210938 232.121094 16.433594 232.863281 15.066406 234.183594 C 13.503906 235.699219 12.378906 237.964844 11.8125 240.746094 C 10.914062 245.1875 11.550781 249.855469 13.609375 253.894531 C 15.355469 257.320312 18.984375 260.382812 22.273438 259.308594 C 24.808594 258.480469 26.167969 255.515625 26.757812 253.824219 C 28.753906 248.070312 28.511719 240.972656 26.175781 236.558594 C 24.976562 234.292969 23.308594 232.855469 21.21875 232.292969 C 20.785156 232.175781 20.335938 232.121094 19.878906 232.121094 Z M 19.878906 232.121094 " fill-opacity="1" fill-rule="nonzero"/><path fill="#000000" d="M 101.96875 76.09375 C 97.753906 76.09375 93.820312 72.671875 91.785156 68.679688 C 89.394531 63.988281 88.65625 58.5625 89.703125 53.402344 C 90.398438 49.972656 91.839844 47.121094 93.882812 45.148438 C 96.472656 42.640625 100.023438 41.605469 103.160156 42.449219 C 106.113281 43.25 108.53125 45.28125 110.152344 48.335938 C 113.351562 54.382812 112.847656 62.667969 110.929688 68.195312 C 109.570312 72.105469 107.246094 74.773438 104.375 75.710938 C 103.574219 75.972656 102.769531 76.09375 101.972656 76.09375 Z M 100.964844 45.425781 C 99.300781 45.425781 97.519531 46.167969 96.15625 47.488281 C 94.589844 49.003906 93.464844 51.269531 92.902344 54.050781 C 92 58.492188 92.640625 63.160156 94.695312 67.199219 C 96.445312 70.625 100.078125 73.6875 103.359375 72.613281 C 105.894531 71.785156 107.257812 68.820312 107.847656 67.125 C 109.84375 61.375 109.605469 54.277344 107.265625 49.859375 C 106.0625 47.59375 104.398438 46.15625 102.304688 45.59375 C 101.875 45.476562 101.425781 45.421875 100.964844 45.421875 Z M 100.964844 45.425781 " fill-opacity="1" fill-rule="nonzero"/><g clip-path="url(#d4e662601b)"><path fill="#000000" d="M 100.207031 318.273438 C 95.992188 318.273438 92.058594 314.851562 90.023438 310.855469 C 87.632812 306.164062 86.894531 300.738281 87.941406 295.578125 C 88.636719 292.152344 90.078125 289.296875 92.117188 287.324219 C 94.714844 284.820312 98.269531 283.78125 101.394531 284.625 C 104.351562 285.421875 106.765625 287.457031 108.386719 290.511719 C 111.585938 296.554688 111.085938 304.839844 109.164062 310.371094 C 107.808594 314.28125 105.480469 316.949219 102.609375 317.886719 C 101.808594 318.148438 101.003906 318.269531 100.207031 318.269531 Z M 99.203125 287.601562 C 97.535156 287.601562 95.753906 288.347656 94.386719 289.671875 C 92.820312 291.179688 91.699219 293.449219 91.132812 296.230469 C 90.234375 300.671875 90.871094 305.339844 92.929688 309.382812 C 94.671875 312.804688 98.296875 315.867188 101.59375 314.792969 C 104.125 313.964844 105.488281 311.003906 106.078125 309.308594 C 108.074219 303.554688 107.835938 296.457031 105.496094 292.042969 C 104.296875 289.777344 102.628906 288.339844 100.539062 287.773438 C 100.109375 287.65625 99.65625 287.601562 99.199219 287.601562 Z M 99.203125 287.601562 " fill-opacity="1" fill-rule="nonzero"/></g><path fill="#000000" d="M 310.046875 108.449219 C 309.207031 108.449219 308.492188 107.808594 308.425781 106.953125 L 305.902344 77.15625 C 305.824219 76.257812 306.492188 75.46875 307.386719 75.390625 C 308.269531 75.324219 309.074219 75.980469 309.152344 76.878906 L 311.675781 106.675781 C 311.753906 107.574219 311.085938 108.363281 310.1875 108.441406 C 310.140625 108.441406 310.09375 108.445312 310.050781 108.445312 Z M 310.046875 108.449219 " fill-opacity="1" fill-rule="nonzero"/><path fill="#000000" d="M 308.800781 91.683594 C 307.96875 91.683594 307.261719 91.054688 307.179688 90.210938 C 307.089844 89.316406 307.746094 88.515625 308.644531 88.429688 C 313.640625 87.941406 318.226562 87.796875 323.078125 87.644531 L 325.296875 87.578125 C 326.160156 87.523438 326.953125 88.253906 326.984375 89.152344 C 327.011719 90.054688 326.304688 90.808594 325.40625 90.835938 L 323.183594 90.90625 C 318.382812 91.054688 313.855469 91.199219 308.957031 91.679688 C 308.902344 91.683594 308.851562 91.6875 308.796875 91.6875 Z M 308.800781 91.683594 " fill-opacity="1" fill-rule="nonzero"/><path fill="#000000" d="M 327.792969 107.414062 C 326.988281 107.414062 326.285156 106.820312 326.175781 105.996094 C 325.09375 97.695312 324.320312 87.621094 323.882812 76.058594 C 323.847656 75.15625 324.546875 74.402344 325.449219 74.367188 C 326.335938 74.339844 327.105469 75.035156 327.140625 75.933594 C 327.578125 87.398438 328.339844 97.367188 329.410156 105.570312 C 329.527344 106.464844 328.898438 107.285156 328.003906 107.398438 C 327.933594 107.410156 327.863281 107.414062 327.792969 107.414062 Z M 327.792969 107.414062 " fill-opacity="1" fill-rule="nonzero"/><path fill="#000000" d="M 308.800781 91.683594 C 307.96875 91.683594 307.261719 91.054688 307.179688 90.210938 C 307.089844 89.316406 307.746094 88.515625 308.644531 88.429688 C 313.640625 87.941406 318.226562 87.796875 323.078125 87.644531 L 325.296875 87.578125 C 326.160156 87.523438 326.953125 88.253906 326.984375 89.152344 C 327.011719 90.054688 326.304688 90.808594 325.40625 90.835938 L 323.183594 90.90625 C 318.382812 91.054688 313.855469 91.199219 308.957031 91.679688 C 308.902344 91.683594 308.851562 91.6875 308.796875 91.6875 Z M 308.800781 91.683594 " fill-opacity="1" fill-rule="nonzero"/><path fill="#000000" d="M 121.429688 317.160156 C 120.589844 317.160156 119.878906 316.519531 119.808594 315.667969 L 117.285156 285.867188 C 117.207031 284.972656 117.875 284.183594 118.769531 284.105469 C 119.644531 284.035156 120.460938 284.695312 120.535156 285.589844 L 123.058594 315.390625 C 123.136719 316.285156 122.46875 317.074219 121.574219 317.152344 C 121.523438 317.152344 121.476562 317.15625 121.433594 317.15625 Z M 121.429688 317.160156 " fill-opacity="1" fill-rule="nonzero"/><path fill="#000000" d="M 120.1875 300.390625 C 119.355469 300.390625 118.648438 299.761719 118.566406 298.921875 C 118.476562 298.023438 119.132812 297.226562 120.03125 297.136719 C 125.03125 296.652344 129.613281 296.507812 134.464844 296.355469 L 136.6875 296.285156 C 137.570312 296.207031 138.339844 296.960938 138.371094 297.863281 C 138.398438 298.761719 137.691406 299.515625 136.792969 299.546875 L 134.566406 299.617188 C 129.769531 299.765625 125.242188 299.90625 120.347656 300.382812 C 120.289062 300.386719 120.238281 300.390625 120.183594 300.390625 Z M 120.1875 300.390625 " fill-opacity="1" fill-rule="nonzero"/><path fill="#000000" d="M 139.179688 316.125 C 138.375 316.125 137.671875 315.527344 137.566406 314.707031 C 136.480469 306.40625 135.707031 296.332031 135.269531 284.765625 C 135.234375 283.867188 135.933594 283.109375 136.835938 283.078125 C 137.734375 283.039062 138.492188 283.742188 138.527344 284.644531 C 138.964844 296.109375 139.730469 306.082031 140.796875 314.28125 C 140.914062 315.171875 140.285156 315.992188 139.390625 316.105469 C 139.320312 316.117188 139.25 316.121094 139.179688 316.121094 Z M 139.179688 316.125 " fill-opacity="1" fill-rule="nonzero"/><path fill="#000000" d="M 120.1875 300.390625 C 119.355469 300.390625 118.648438 299.761719 118.566406 298.921875 C 118.476562 298.023438 119.132812 297.226562 120.03125 297.136719 C 125.03125 296.652344 129.613281 296.507812 134.464844 296.355469 L 136.6875 296.285156 C 137.570312 296.207031 138.339844 296.960938 138.371094 297.863281 C 138.398438 298.761719 137.691406 299.515625 136.792969 299.546875 L 134.566406 299.617188 C 129.769531 299.765625 125.242188 299.90625 120.347656 300.382812 C 120.289062 300.386719 120.238281 300.390625 120.183594 300.390625 Z M 120.1875 300.390625 " fill-opacity="1" fill-rule="nonzero"/><path fill="#000000" d="M 289.8125 110.175781 C 288.25 110.175781 286.632812 109.730469 285.183594 108.859375 C 283.296875 107.726562 281.660156 105.898438 280.3125 103.425781 C 276.707031 96.800781 276.695312 88.234375 280.28125 81.597656 C 281.570312 79.214844 283.851562 76.25 287.398438 75.648438 C 289.390625 75.308594 291.625 76.082031 293.082031 77.617188 C 294.308594 78.90625 294.808594 80.554688 294.453125 82.140625 C 294.253906 83.019531 293.386719 83.566406 292.503906 83.375 C 291.625 83.179688 291.074219 82.308594 291.265625 81.429688 C 291.414062 80.769531 291.046875 80.214844 290.714844 79.863281 C 290.007812 79.117188 288.863281 78.707031 287.9375 78.863281 C 285.570312 79.265625 283.921875 81.722656 283.148438 83.148438 C 280.074219 88.839844 280.082031 96.191406 283.175781 101.871094 C 284.238281 103.828125 285.476562 105.242188 286.863281 106.074219 C 288.410156 107.003906 290.214844 107.1875 291.566406 106.550781 C 292.878906 105.9375 293.703125 104.347656 293.332031 103.140625 C 293.070312 102.28125 293.550781 101.371094 294.414062 101.105469 C 295.269531 100.839844 296.183594 101.320312 296.453125 102.183594 C 297.304688 104.964844 295.773438 108.179688 292.957031 109.5 C 291.992188 109.957031 290.914062 110.175781 289.808594 110.175781 Z M 289.8125 110.175781 " fill-opacity="1" fill-rule="nonzero"/><g clip-path="url(#19040efd83)"><path fill="#000000" d="M 342.914062 125.703125 C 340.832031 125.703125 338.925781 124.765625 337.9375 123.222656 C 337.449219 122.464844 337.671875 121.457031 338.429688 120.972656 C 339.183594 120.488281 340.199219 120.707031 340.683594 121.464844 C 341.175781 122.238281 342.328125 122.5 343.226562 122.425781 C 344.4375 122.324219 345.636719 121.75 346.96875 121.074219 C 347.667969 120.71875 348.226562 120.417969 348.570312 120.023438 C 349.171875 119.335938 349.246094 118.191406 349.199219 117.351562 C 349.113281 115.679688 348.441406 113.585938 346.824219 112.703125 C 346.21875 112.375 345.375 112.324219 344.648438 112.558594 C 344.117188 113.226562 343.550781 113.863281 342.945312 114.46875 C 342.425781 114.988281 341.625 115.101562 340.984375 114.738281 C 340.34375 114.375 340.027344 113.628906 340.210938 112.917969 C 340.523438 111.679688 341.363281 110.621094 342.542969 109.945312 C 343.289062 108.925781 343.929688 107.832031 344.46875 106.675781 C 344.820312 105.917969 345.214844 104.929688 345.164062 104.035156 C 345.125 103.394531 344.785156 102.789062 344.367188 102.621094 C 343.683594 102.355469 342.625 103.0625 341.96875 103.859375 C 341.644531 104.25 341.359375 104.671875 341.070312 105.097656 C 340.417969 106.046875 339.679688 107.125 338.585938 107.933594 C 337.859375 108.472656 336.835938 108.320312 336.304688 107.59375 C 335.769531 106.871094 335.917969 105.851562 336.644531 105.316406 C 337.300781 104.828125 337.824219 104.0625 338.378906 103.25 C 338.710938 102.773438 339.046875 102.277344 339.4375 101.796875 C 340.757812 100.1875 343.148438 98.640625 345.554688 99.585938 C 347.175781 100.222656 348.300781 101.890625 348.417969 103.835938 C 348.511719 105.460938 347.9375 106.9375 347.429688 108.042969 C 347.234375 108.457031 347.03125 108.863281 346.8125 109.265625 C 347.371094 109.378906 347.90625 109.570312 348.390625 109.839844 C 350.765625 111.132812 352.289062 113.878906 352.464844 117.171875 C 352.578125 119.273438 352.09375 120.953125 351.03125 122.167969 C 350.246094 123.066406 349.210938 123.59375 348.457031 123.976562 C 346.871094 124.78125 345.304688 125.511719 343.511719 125.667969 C 343.3125 125.683594 343.113281 125.691406 342.917969 125.691406 Z M 342.914062 125.703125 " fill-opacity="1" fill-rule="nonzero"/></g></svg>